Coordinates
version=1
nRows=27
nColumns=12
inDegrees=yes

Units are S.I. units (second, meters, Newtons, ...)
Angles are in degrees

endheader
time	SC_y	SC_z	SC_x	AC_y	AC_z	AC_x	GH_y	GH_z	GH_yy	EL_x	PS_y
       0.0              -17.79          5.555           67.0          65.41         -17.39         -12.42         -25.46          59.77         -68.44          9.235          50.91
   0.03301              -17.79          5.557           67.0          65.41         -17.39         -12.42         -25.44          59.77         -68.45          9.248          50.92
   0.06601              -17.79          5.559           67.0          65.41         -17.39         -12.42         -25.42          59.77         -68.45          9.262          50.92
   0.09902              -17.79          5.561          66.99          65.41         -17.39         -12.41          -25.4          59.76         -68.46          9.277          50.93
     0.132              -17.79          5.564          66.99          65.41         -17.39         -12.41         -25.38          59.76         -68.47          9.293          50.94
     0.165              -17.79          5.567          66.98           65.4         -17.38         -12.41         -25.35          59.76         -68.49           9.31          50.94
     0.198              -17.78           5.57          66.98           65.4         -17.38         -12.41         -25.32          59.75          -68.5          9.328          50.95
     0.231              -17.78          5.573          66.97           65.4         -17.38          -12.4          -25.3          59.75         -68.51          9.347          50.96
    0.2641              -17.78          5.576          66.96           65.4         -17.38          -12.4         -25.26          59.75         -68.52          9.368          50.97
    0.2971              -17.78          5.579          66.96           65.4         -17.38          -12.4         -25.23          59.74         -68.54           9.39          50.97
    0.3301              -17.78          5.583          66.95           65.4         -17.38         -12.39          -25.2          59.74         -68.55          9.414          50.98
    0.3631              -17.78          5.587          66.94           65.4         -17.38         -12.39         -25.16          59.73         -68.57           9.44          50.99
    0.3961              -17.78          5.592          66.94           65.4         -17.37         -12.38         -25.12          59.73         -68.59          9.468           51.0
    0.4291              -17.77          5.597          66.93           65.4         -17.37         -12.38         -25.07          59.72         -68.61          9.498          51.02
    0.4621              -17.77          5.602          66.92          65.39         -17.37         -12.37         -25.02          59.72         -68.63           9.53          51.03
    0.4951              -17.77          5.607          66.91          65.39         -17.37         -12.37         -24.97          59.71         -68.65          9.565          51.04
    0.5281              -17.77          5.613          66.89          65.39         -17.37         -12.36         -24.91           59.7         -68.67          9.603          51.06
    0.5611              -17.76           5.62          66.88          65.39         -17.36         -12.35         -24.85          59.69          -68.7          9.645          51.07
    0.5941              -17.76          5.627          66.87          65.39         -17.36         -12.35         -24.78          59.69         -68.73           9.69          51.09
    0.6271              -17.76          5.635          66.85          65.38         -17.36         -12.34         -24.71          59.68         -68.76           9.74          51.11
    0.6601              -17.75          5.644          66.84          65.38         -17.35         -12.33         -24.63          59.67         -68.79          9.795          51.13
    0.6931              -17.75          5.654          66.82          65.38         -17.35         -12.32         -24.54          59.66         -68.83          9.855          51.16
    0.7261              -17.74          5.664           66.8          65.38         -17.34         -12.31         -24.44          59.64         -68.88          9.921          51.18
    0.7592              -17.74          5.676          66.78          65.37         -17.34          -12.3         -24.33          59.63         -68.92          9.995          51.21
    0.7922              -17.73          5.689          66.75          65.37         -17.33         -12.29          -24.2          59.61         -68.97          10.08          51.24
    0.8252              -17.73          5.703          66.73          65.37         -17.33         -12.27         -24.07           59.6         -69.03          10.17          51.28
    0.8582              -17.72           5.72          66.69          65.36         -17.32         -12.26         -23.91          59.58          -69.1          10.27          51.32
